<svg xmlns="http://www.w3.org/2000/svg" viewBox="0 0 800 500">
  <rect width="800" height="500" fill="#1a1a2e"/>
  <text x="400" y="40" text-anchor="middle" fill="#01a982" font-family="Arial" font-size="20" font-weight="bold">Scan Results Dashboard</text>
  <rect x="30" y="60" width="740" height="420" rx="8" fill="#16213e" stroke="#01a982" stroke-width="1"/>
  <rect x="50" y="80" width="160" height="70" rx="8" fill="#ff4757" opacity="0.2" stroke="#ff4757"/>
  <text x="130" y="110" text-anchor="middle" fill="#ff4757" font-family="Arial" font-size="12">CRITICAL</text>
  <text x="130" y="135" text-anchor="middle" fill="#ff4757" font-family="Arial" font-size="24" font-weight="bold">23</text>
  <rect x="230" y="80" width="160" height="70" rx="8" fill="#ffa502" opacity="0.2" stroke="#ffa502"/>
  <text x="310" y="110" text-anchor="middle" fill="#ffa502" font-family="Arial" font-size="12">HIGH</text>
  <text x="310" y="135" text-anchor="middle" fill="#ffa502" font-family="Arial" font-size="24" font-weight="bold">47</text>
  <rect x="410" y="80" width="160" height="70" rx="8" fill="#2ed573" opacity="0.2" stroke="#2ed573"/>
  <text x="490" y="110" text-anchor="middle" fill="#2ed573" font-family="Arial" font-size="12">MEDIUM</text>
  <text x="490" y="135" text-anchor="middle" fill="#2ed573" font-family="Arial" font-size="24" font-weight="bold">89</text>
  <rect x="590" y="80" width="160" height="70" rx="8" fill="#70a1ff" opacity="0.2" stroke="#70a1ff"/>
  <text x="670" y="110" text-anchor="middle" fill="#70a1ff" font-family="Arial" font-size="12">LOW</text>
  <text x="670" y="135" text-anchor="middle" fill="#70a1ff" font-family="Arial" font-size="24" font-weight="bold">156</text>
  <text x="60" y="190" fill="#e0e0e0" font-family="Arial" font-size="11">auth.log</text>
  <rect x="160" y="178" width="580" height="16" rx="4" fill="#2a2a4a"/>
  <rect x="160" y="178" width="420" height="16" rx="4" fill="#ff4757"/>
  <text x="60" y="220" fill="#e0e0e0" font-family="Arial" font-size="11">syslog</text>
  <rect x="160" y="208" width="580" height="16" rx="4" fill="#2a2a4a"/>
  <rect x="160" y="208" width="350" height="16" rx="4" fill="#ffa502"/>
  <text x="60" y="250" fill="#e0e0e0" font-family="Arial" font-size="11">kernel.log</text>
  <rect x="160" y="238" width="580" height="16" rx="4" fill="#2a2a4a"/>
  <rect x="160" y="238" width="280" height="16" rx="4" fill="#2ed573"/>
  <text x="60" y="280" fill="#e0e0e0" font-family="Arial" font-size="11">access.log</text>
  <rect x="160" y="268" width="580" height="16" rx="4" fill="#2a2a4a"/>
  <rect x="160" y="268" width="200" height="16" rx="4" fill="#70a1ff"/>
  <text x="60" y="310" fill="#e0e0e0" font-family="Arial" font-size="11">app.log</text>
  <rect x="160" y="298" width="580" height="16" rx="4" fill="#2a2a4a"/>
  <rect x="160" y="298" width="500" height="16" rx="4" fill="#ff4757"/>
  <rect x="50" y="340" width="700" height="120" rx="8" fill="#0f3460"/>
  <text x="60" y="360" fill="#e0e0e0" font-family="Arial" font-size="11">Scan Timeline</text>
  <circle cx="120" cy="400" r="4" fill="#ff4757"/>
  <circle cx="220" cy="420" r="4" fill="#ffa502"/>
  <circle cx="350" cy="390" r="4" fill="#ff4757"/>
  <circle cx="450" cy="430" r="4" fill="#70a1ff"/>
  <circle cx="550" cy="395" r="4" fill="#2ed573"/>
  <circle cx="650" cy="410" r="4" fill="#ffa502"/>
  <line x1="120" y1="400" x2="220" y2="420" stroke="#01a982" stroke-width="1" opacity="0.5"/>
  <line x1="220" y1="420" x2="350" y2="390" stroke="#01a982" stroke-width="1" opacity="0.5"/>
  <line x1="350" y1="390" x2="450" y2="430" stroke="#01a982" stroke-width="1" opacity="0.5"/>
  <line x1="450" y1="430" x2="550" y2="395" stroke="#01a982" stroke-width="1" opacity="0.5"/>
  <line x1="550" y1="395" x2="650" y2="410" stroke="#01a982" stroke-width="1" opacity="0.5"/>
</svg>