<svg xmlns="http://www.w3.org/2000/svg" viewBox="0 0 800 500">
  <rect width="800" height="500" fill="#1a1a2e"/>
  <text x="400" y="40" text-anchor="middle" fill="#01a982" font-family="Arial" font-size="20" font-weight="bold">System Health Score</text>
  <rect x="30" y="60" width="740" height="420" rx="8" fill="#16213e" stroke="#01a982" stroke-width="1"/>
  <circle cx="400" cy="230" r="100" fill="none" stroke="#2a2a4a" stroke-width="16"/>
  <circle cx="400" cy="230" r="100" fill="none" stroke="#ffa502" stroke-width="16" stroke-dasharray="452 628" transform="rotate(-90 400 230)"/>
  <text x="400" y="220" text-anchor="middle" fill="#e0e0e0" font-family="Arial" font-size="48" font-weight="bold">72</text>
  <text x="400" y="250" text-anchor="middle" fill="#e0e0e0" font-family="Arial" font-size="14">/100</text>
  <text x="400" y="280" text-anchor="middle" fill="#ffa502" font-family="Arial" font-size="28" font-weight="bold">Grade B</text>
  <rect x="60" y="360" width="150" height="60" rx="8" fill="#0f3460"/>
  <text x="135" y="385" text-anchor="middle" fill="#e0e0e0" font-family="Arial" font-size="10">Uptime</text>
  <text x="135" y="405" text-anchor="middle" fill="#2ed573" font-family="Arial" font-size="18" font-weight="bold">99.2%</text>
  <rect x="230" y="360" width="150" height="60" rx="8" fill="#0f3460"/>
  <text x="305" y="385" text-anchor="middle" fill="#e0e0e0" font-family="Arial" font-size="10">Error Rate</text>
  <text x="305" y="405" text-anchor="middle" fill="#ffa502" font-family="Arial" font-size="18" font-weight="bold">2.8%</text>
  <rect x="400" y="360" width="150" height="60" rx="8" fill="#0f3460"/>
  <text x="475" y="385" text-anchor="middle" fill="#e0e0e0" font-family="Arial" font-size="10">Latency</text>
  <text x="475" y="405" text-anchor="middle" fill="#2ed573" font-family="Arial" font-size="18" font-weight="bold">142ms</text>
  <rect x="570" y="360" width="150" height="60" rx="8" fill="#0f3460"/>
  <text x="645" y="385" text-anchor="middle" fill="#e0e0e0" font-family="Arial" font-size="10">Threats</text>
  <text x="645" y="405" text-anchor="middle" fill="#ff4757" font-family="Arial" font-size="18" font-weight="bold">3</text>
  <rect x="180" y="440" width="50" height="20" rx="4" fill="#2ed573"/>
  <text x="205" y="454" text-anchor="middle" fill="#1a1a2e" font-family="Arial" font-size="10" font-weight="bold">A</text>
  <rect x="240" y="440" width="50" height="20" rx="4" fill="#ffa502" stroke="#e0e0e0"/>
  <text x="265" y="454" text-anchor="middle" fill="#1a1a2e" font-family="Arial" font-size="10" font-weight="bold">B</text>
  <rect x="300" y="440" width="50" height="20" rx="4" fill="#ffa502" opacity="0.5"/>
  <text x="325" y="454" text-anchor="middle" fill="#1a1a2e" font-family="Arial" font-size="10" font-weight="bold">C</text>
  <rect x="360" y="440" width="50" height="20" rx="4" fill="#ff4757" opacity="0.5"/>
  <text x="385" y="454" text-anchor="middle" fill="#1a1a2e" font-family="Arial" font-size="10" font-weight="bold">D</text>
  <rect x="420" y="440" width="50" height="20" rx="4" fill="#ff4757" opacity="0.3"/>
  <text x="445" y="454" text-anchor="middle" fill="#e0e0e0" font-family="Arial" font-size="10" font-weight="bold">F</text>
</svg>