<svg xmlns="http://www.w3.org/2000/svg" viewBox="0 0 800 500">
  <rect width="800" height="500" fill="#1a1a2e"/>
  <text x="400" y="40" text-anchor="middle" fill="#01a982" font-family="Arial" font-size="20" font-weight="bold">Incident Cinema — Topology Replay</text>
  <rect x="30" y="60" width="740" height="380" rx="8" fill="#16213e" stroke="#01a982" stroke-width="1"/>
  <!-- Topology nodes -->
  <circle cx="400" cy="150" r="25" fill="#0f3460" stroke="#01a982" stroke-width="2"/>
  <text x="400" y="154" text-anchor="middle" fill="#01a982" font-family="Arial" font-size="9">LB</text>
  <circle cx="200" cy="250" r="25" fill="#0f3460" stroke="#2ed573" stroke-width="2"/>
  <text x="200" y="254" text-anchor="middle" fill="#2ed573" font-family="Arial" font-size="9">Web-1</text>
  <circle cx="400" cy="250" r="25" fill="#0f3460" stroke="#ff4757" stroke-width="2"/>
  <text x="400" y="254" text-anchor="middle" fill="#ff4757" font-family="Arial" font-size="9">Web-2</text>
  <circle cx="600" cy="250" r="25" fill="#0f3460" stroke="#2ed573" stroke-width="2"/>
  <text x="600" y="254" text-anchor="middle" fill="#2ed573" font-family="Arial" font-size="9">Web-3</text>
  <circle cx="300" cy="350" r="25" fill="#0f3460" stroke="#ffa502" stroke-width="2"/>
  <text x="300" y="354" text-anchor="middle" fill="#ffa502" font-family="Arial" font-size="9">DB-M</text>
  <circle cx="500" cy="350" r="25" fill="#0f3460" stroke="#2ed573" stroke-width="2"/>
  <text x="500" y="354" text-anchor="middle" fill="#2ed573" font-family="Arial" font-size="9">DB-R</text>
  <!-- Connections -->
  <line x1="380" y1="170" x2="220" y2="230" stroke="#2ed573" stroke-width="1.5"/>
  <line x1="400" y1="175" x2="400" y2="225" stroke="#ff4757" stroke-width="2" stroke-dasharray="4"/>
  <line x1="420" y1="170" x2="580" y2="230" stroke="#2ed573" stroke-width="1.5"/>
  <line x1="220" y1="270" x2="290" y2="330" stroke="#2ed573" stroke-width="1.5"/>
  <line x1="400" y1="275" x2="310" y2="330" stroke="#ff4757" stroke-width="2" stroke-dasharray="4"/>
  <line x1="580" y1="270" x2="510" y2="330" stroke="#2ed573" stroke-width="1.5"/>
  <!-- Alert on Web-2 -->
  <circle cx="425" cy="230" r="8" fill="#ff4757"/>
  <text x="425" y="233" text-anchor="middle" fill="#e0e0e0" font-family="Arial" font-size="8">!</text>
  <!-- Playback controls -->
  <rect x="30" y="445" width="740" height="45" rx="8" fill="#0f3460"/>
  <rect x="60" y="460" width="600" height="6" rx="3" fill="#2a2a4a"/>
  <rect x="60" y="460" width="360" height="6" rx="3" fill="#01a982"/>
  <circle cx="420" cy="463" r="8" fill="#01a982"/>
  <text x="680" y="470" fill="#e0e0e0" font-family="Arial" font-size="11">03:42 / 05:17</text>
  <rect x="50" y="455" width="0" height="0"/>
  <text x="70" y="483" fill="#e0e0e0" font-family="Arial" font-size="10">|&lt; &lt;&lt;  ▶  &gt;&gt; &gt;|</text>
  <text x="680" y="483" fill="#ffa502" font-family="Arial" font-size="10">Frame 47/156</text>
</svg>